<svg id="Layer_1" height="512" viewBox="0 0 128 128" width="512" xmlns="http://www.w3.org/2000/svg" xmlns:xlink="http://www.w3.org/1999/xlink" data-name="Layer 1"><linearGradient id="linear-gradient" gradientUnits="userSpaceOnUse" x1="121.734" x2="19.492" y1="121.749" y2="19.507"><stop offset="0" stop-color="#30ade0"/><stop offset="1" stop-color="#85c646"/></linearGradient><path d="m121.745 114.454-1.537-1.537a1.75 1.75 0 0 0 -2.475 2.475l1.538 1.537a1.651 1.651 0 0 1 0 2.334 1.69 1.69 0 0 1 -2.334 0l-10.609-10.608 1.359-1.359c.019-.018.041-.03.06-.049s.031-.041.049-.06l1-1a1.751 1.751 0 0 0 1.778-2.9l-.675-.676a1.749 1.749 0 0 0 -2.475 0l-.921.921-1.6-1.6a25.847 25.847 0 0 0 -.878-34.521 50.191 50.191 0 0 0 -5.243-37.478v-.008c-.036-.062-.066-.127-.1-.189a1.309 1.309 0 0 0 -.079-.129 50.429 50.429 0 0 0 -9.759-11.943 1.75 1.75 0 0 0 -2.34 2.6 46.962 46.962 0 0 1 7.489 8.6h-13.851a63.872 63.872 0 0 0 -7.009-17.03 46.759 46.759 0 0 1 5.79 2.876 1.75 1.75 0 1 0 1.777-3.01 50.12 50.12 0 0 0 -11.726-5.031 50.528 50.528 0 0 0 -13.716-1.909c-.035 0-.068-.01-.1-.01s-.07.009-.105.011a50.448 50.448 0 0 0 -13.713 1.906c-.046.014-.092.029-.138.046a50.386 50.386 0 0 0 -36.452 48.437 50.4 50.4 0 0 0 36.594 48.488l.05.013a50.363 50.363 0 0 0 26.041.371 25.7 25.7 0 0 0 8.525 5.378 1.75 1.75 0 1 0 1.244-3.272 22.434 22.434 0 1 1 7.965 1.456 1.75 1.75 0 0 0 0 3.5 25.81 25.81 0 0 0 17.3-6.638l1.561 1.554-1.414 1.413a1.751 1.751 0 0 0 0 2.475l11.845 11.845a5.15 5.15 0 1 0 7.284-7.283zm-38.359-61.054a103.558 103.558 0 0 0 -2.394-21.039h15.134a46.765 46.765 0 0 1 5.874 21.039zm-29.986 48.593a47.253 47.253 0 0 1 -10.572-1.585c-3.754-4.626-6.846-11.138-9.025-18.968h19.597zm-20.49-24.053a100.965 100.965 0 0 1 -2.491-21.04h22.981v21.04zm-18.738 0a46.827 46.827 0 0 1 -5.864-21.04h18.61a103.28 103.28 0 0 0 2.4 21.036zm0-45.575h15.145a103.255 103.255 0 0 0 -2.4 21.039h-18.609a46.748 46.748 0 0 1 5.866-21.039zm16.247 21.035a100.943 100.943 0 0 1 2.492-21.039h20.489v21.039zm12.415-43.5a46.815 46.815 0 0 1 10.566-1.583v20.548h-19.6c2.187-7.829 5.279-14.341 9.034-18.965zm14.066 22.465h20.5a101.165 101.165 0 0 1 2.485 21.035h-22.985zm0-3.5v-20.548a46.872 46.872 0 0 1 10.581 1.583c3.754 4.631 6.845 11.141 9.021 18.963zm-19.72-17.035a63.912 63.912 0 0 0 -7.012 17.035h-13.851a46.607 46.607 0 0 1 20.863-17.035zm-20.866 69.61h13.853a63.936 63.936 0 0 0 7.02 17.05 46.642 46.642 0 0 1 -20.873-17.05zm48.436 19.624a47.086 47.086 0 0 1 -7.85.936v-20.56h2.617a25.731 25.731 0 0 0 5.229 19.624zm-4.469-23.124h-3.381v-21.04h22.985q-.024 1.437-.086 2.9a26.005 26.005 0 0 0 -19.518 18.14zm23.041-18.624c.03-.812.051-1.614.063-2.412h18.615a47 47 0 0 1 -.929 7.814 25.783 25.783 0 0 0 -15.9-5.475c-.624 0-1.238.03-1.849.073zm28.516 50.184a1.75 1.75 0 0 1 2.474-2.476l1.834 1.833a1.75 1.75 0 0 1 -2.475 2.476zm-22.117-39.067a1.75 1.75 0 1 1 1.037-3.343 18.838 18.838 0 0 1 13.326 18.076 1.75 1.75 0 0 1 -3.5 0 15.354 15.354 0 0 0 -10.863-14.733z" fill="url(#linear-gradient)"/></svg>